G75*
%MOIN*%
%OFA0B0*%
%FSLAX25Y25*%
%IPPOS*%
%LPD*%
%AMOC8*
5,1,8,0,0,1.08239X$1,22.5*
%
%ADD10C,0.06000*%
%ADD11C,0.09400*%
%ADD12C,0.08600*%
%ADD13C,0.06737*%
%ADD14C,0.06800*%
%ADD15C,0.09050*%
%ADD16C,0.12611*%
%ADD17R,0.07887X0.07493*%
%ADD18OC8,0.15800*%
%ADD19C,0.07400*%
%ADD20C,0.03778*%
D10*
X0150920Y0084333D02*
X0156120Y0084333D01*
X0156120Y0094333D02*
X0150920Y0094333D01*
X0150920Y0104333D02*
X0156120Y0104333D01*
X0156120Y0114333D02*
X0150920Y0114333D01*
X0150920Y0124333D02*
X0156120Y0124333D01*
X0156120Y0134333D02*
X0150920Y0134333D01*
X0150920Y0144333D02*
X0156120Y0144333D01*
X0180920Y0144333D02*
X0186120Y0144333D01*
X0186120Y0134333D02*
X0180920Y0134333D01*
X0180920Y0124333D02*
X0186120Y0124333D01*
X0186120Y0114333D02*
X0180920Y0114333D01*
X0180920Y0104333D02*
X0186120Y0104333D01*
X0186120Y0094333D02*
X0180920Y0094333D01*
X0180920Y0084333D02*
X0186120Y0084333D01*
X0310920Y0079333D02*
X0316120Y0079333D01*
X0316120Y0089333D02*
X0310920Y0089333D01*
X0310920Y0099333D02*
X0316120Y0099333D01*
X0316120Y0109333D02*
X0310920Y0109333D01*
X0310920Y0119333D02*
X0316120Y0119333D01*
X0316120Y0129333D02*
X0310920Y0129333D01*
X0310920Y0139333D02*
X0316120Y0139333D01*
X0340920Y0139333D02*
X0346120Y0139333D01*
X0346120Y0129333D02*
X0340920Y0129333D01*
X0340920Y0119333D02*
X0346120Y0119333D01*
X0346120Y0109333D02*
X0340920Y0109333D01*
X0340920Y0099333D02*
X0346120Y0099333D01*
X0346120Y0089333D02*
X0340920Y0089333D01*
X0340920Y0079333D02*
X0346120Y0079333D01*
X0303520Y0339133D02*
X0303520Y0344333D01*
X0293520Y0344333D02*
X0293520Y0339133D01*
X0263520Y0339133D02*
X0263520Y0344333D01*
X0253520Y0344333D02*
X0253520Y0339133D01*
X0223520Y0339133D02*
X0223520Y0344333D01*
X0213520Y0344333D02*
X0213520Y0339133D01*
X0183520Y0339133D02*
X0183520Y0344333D01*
X0173520Y0344333D02*
X0173520Y0339133D01*
X0143520Y0339133D02*
X0143520Y0344333D01*
X0133520Y0344333D02*
X0133520Y0339133D01*
X0103520Y0339133D02*
X0103520Y0344333D01*
X0093520Y0344333D02*
X0093520Y0339133D01*
X0093520Y0374333D02*
X0093520Y0379533D01*
X0103520Y0379533D02*
X0103520Y0374333D01*
X0133520Y0374333D02*
X0133520Y0379533D01*
X0143520Y0379533D02*
X0143520Y0374333D01*
X0173520Y0374333D02*
X0173520Y0379533D01*
X0183520Y0379533D02*
X0183520Y0374333D01*
X0213520Y0374333D02*
X0213520Y0379533D01*
X0223520Y0379533D02*
X0223520Y0374333D01*
X0253520Y0374333D02*
X0253520Y0379533D01*
X0263520Y0379533D02*
X0263520Y0374333D01*
X0293520Y0374333D02*
X0293520Y0379533D01*
X0303520Y0379533D02*
X0303520Y0374333D01*
D11*
X0055331Y0293633D02*
X0055331Y0285033D01*
X0031709Y0285033D02*
X0031709Y0293633D01*
X0039220Y0270436D02*
X0047820Y0270436D01*
D12*
X0088620Y0415433D02*
X0088620Y0423233D01*
X0108420Y0423233D02*
X0108420Y0415433D01*
X0128620Y0415433D02*
X0128620Y0423233D01*
X0148420Y0423233D02*
X0148420Y0415433D01*
X0168620Y0415433D02*
X0168620Y0423233D01*
X0188420Y0423233D02*
X0188420Y0415433D01*
X0208620Y0415433D02*
X0208620Y0423233D01*
X0228420Y0423233D02*
X0228420Y0415433D01*
X0248620Y0415433D02*
X0248620Y0423233D01*
X0268420Y0423233D02*
X0268420Y0415433D01*
X0288620Y0415433D02*
X0288620Y0423233D01*
X0308420Y0423233D02*
X0308420Y0415433D01*
X0388620Y0415433D02*
X0388620Y0423233D01*
X0408420Y0423233D02*
X0408420Y0415433D01*
X0428620Y0415433D02*
X0428620Y0423233D01*
X0448420Y0423233D02*
X0448420Y0415433D01*
X0468620Y0415433D02*
X0468620Y0423233D01*
X0488420Y0423233D02*
X0488420Y0415433D01*
X0508620Y0415433D02*
X0508620Y0423233D01*
X0528420Y0423233D02*
X0528420Y0415433D01*
X0548620Y0415433D02*
X0548620Y0423233D01*
X0568420Y0423233D02*
X0568420Y0415433D01*
X0588620Y0415433D02*
X0588620Y0423233D01*
X0608420Y0423233D02*
X0608420Y0415433D01*
X0413420Y0028233D02*
X0413420Y0020433D01*
X0393620Y0020433D02*
X0393620Y0028233D01*
X0373420Y0028233D02*
X0373420Y0020433D01*
X0353620Y0020433D02*
X0353620Y0028233D01*
X0333420Y0028233D02*
X0333420Y0020433D01*
X0313620Y0020433D02*
X0313620Y0028233D01*
X0293420Y0028233D02*
X0293420Y0020433D01*
X0273620Y0020433D02*
X0273620Y0028233D01*
X0238420Y0028233D02*
X0238420Y0020433D01*
X0218620Y0020433D02*
X0218620Y0028233D01*
X0198420Y0028233D02*
X0198420Y0020433D01*
X0178620Y0020433D02*
X0178620Y0028233D01*
X0158420Y0028233D02*
X0158420Y0020433D01*
X0138620Y0020433D02*
X0138620Y0028233D01*
X0118420Y0028233D02*
X0118420Y0020433D01*
X0098620Y0020433D02*
X0098620Y0028233D01*
D13*
X0101488Y0094333D02*
X0095551Y0094333D01*
X0095551Y0104333D02*
X0101488Y0104333D01*
X0101488Y0114333D02*
X0095551Y0114333D01*
X0095551Y0124333D02*
X0101488Y0124333D01*
X0275551Y0209333D02*
X0281488Y0209333D01*
X0281488Y0219333D02*
X0275551Y0219333D01*
X0263520Y0286365D02*
X0263520Y0292302D01*
X0253520Y0292302D02*
X0253520Y0286365D01*
X0243520Y0286365D02*
X0243520Y0292302D01*
X0148520Y0292302D02*
X0148520Y0286365D01*
X0138520Y0286365D02*
X0138520Y0292302D01*
X0128520Y0292302D02*
X0128520Y0286365D01*
X0348520Y0296365D02*
X0348520Y0302302D01*
X0358520Y0302302D02*
X0358520Y0296365D01*
X0368520Y0296365D02*
X0368520Y0302302D01*
X0643520Y0302302D02*
X0643520Y0296365D01*
X0653520Y0296365D02*
X0653520Y0302302D01*
X0663520Y0302302D02*
X0663520Y0296365D01*
X0411488Y0124333D02*
X0405551Y0124333D01*
X0405551Y0114333D02*
X0411488Y0114333D01*
X0411488Y0104333D02*
X0405551Y0104333D01*
X0405551Y0094333D02*
X0411488Y0094333D01*
D14*
X0196520Y0209333D02*
X0190520Y0209333D01*
X0190520Y0219333D02*
X0196520Y0219333D01*
X0196520Y0229333D02*
X0190520Y0229333D01*
X0121520Y0229333D02*
X0115520Y0229333D01*
X0115520Y0219333D02*
X0121520Y0219333D01*
X0121520Y0209333D02*
X0115520Y0209333D01*
D15*
X0399395Y0261833D02*
X0407645Y0261833D01*
X0429395Y0261833D02*
X0437645Y0261833D01*
X0479395Y0261833D02*
X0487645Y0261833D01*
X0509395Y0261833D02*
X0517645Y0261833D01*
X0559395Y0261833D02*
X0567645Y0261833D01*
X0589395Y0261833D02*
X0597645Y0261833D01*
X0619395Y0196833D02*
X0627645Y0196833D01*
X0597645Y0181833D02*
X0589395Y0181833D01*
X0619395Y0166833D02*
X0627645Y0166833D01*
X0557645Y0166833D02*
X0549395Y0166833D01*
X0527645Y0181833D02*
X0519395Y0181833D01*
X0549395Y0196833D02*
X0557645Y0196833D01*
X0487645Y0196833D02*
X0479395Y0196833D01*
X0457645Y0181833D02*
X0449395Y0181833D01*
X0479395Y0166833D02*
X0487645Y0166833D01*
X0487645Y0101833D02*
X0479395Y0101833D01*
X0457645Y0101833D02*
X0449395Y0101833D01*
X0519395Y0101833D02*
X0527645Y0101833D01*
X0549395Y0101833D02*
X0557645Y0101833D01*
X0589395Y0101833D02*
X0597645Y0101833D01*
X0619395Y0101833D02*
X0627645Y0101833D01*
X0597645Y0326833D02*
X0589395Y0326833D01*
X0567645Y0341833D02*
X0559395Y0341833D01*
X0589395Y0356833D02*
X0597645Y0356833D01*
X0517645Y0356833D02*
X0509395Y0356833D01*
X0487645Y0341833D02*
X0479395Y0341833D01*
X0509395Y0326833D02*
X0517645Y0326833D01*
X0437645Y0326833D02*
X0429395Y0326833D01*
X0407645Y0341833D02*
X0399395Y0341833D01*
X0429395Y0356833D02*
X0437645Y0356833D01*
D16*
X0040921Y0038861D03*
X0655094Y0038861D03*
X0655094Y0405003D03*
X0040921Y0405003D03*
D17*
X0410449Y0279333D03*
X0426591Y0279333D03*
X0490449Y0279333D03*
X0506591Y0279333D03*
X0570449Y0279333D03*
X0586591Y0279333D03*
X0600449Y0119333D03*
X0616591Y0119333D03*
X0546591Y0119333D03*
X0530449Y0119333D03*
X0476591Y0119333D03*
X0460449Y0119333D03*
D18*
X0048520Y0168333D03*
X0028520Y0168333D03*
X0028520Y0230333D03*
X0048520Y0230333D03*
D19*
X0088520Y0174333D03*
X0128520Y0174333D03*
D20*
X0213520Y0149333D03*
X0123520Y0089333D03*
X0213520Y0074333D03*
M02*
