%
M48
M72
T01C0.01378
T02C0.03150
T03C0.03200
T04C0.03937
T05C0.04000
T06C0.04400
T07C0.05200
T08C0.05500
T09C0.05906
T10C0.11811
%
T01
X123520Y89333
X213520Y74333
X213520Y149333
T02
X43520Y270436
X31709Y289333
T03
X93520Y344333
X103520Y344333
X133520Y344333
X143520Y344333
X173520Y344333
X183520Y344333
X213520Y344333
X223520Y344333
X253520Y344333
X263520Y344333
X293520Y344333
X303520Y344333
X303520Y374333
X293520Y374333
X263520Y374333
X253520Y374333
X223520Y374333
X213520Y374333
X183520Y374333
X173520Y374333
X143520Y374333
X133520Y374333
X103520Y374333
X93520Y374333
X153520Y144333
X153520Y134333
X153520Y124333
X153520Y114333
X153520Y104333
X153520Y94333
X153520Y84333
X183520Y84333
X183520Y94333
X183520Y104333
X183520Y114333
X183520Y124333
X183520Y134333
X183520Y144333
X313520Y139333
X313520Y129333
X313520Y119333
X313520Y109333
X313520Y99333
X313520Y89333
X313520Y79333
X343520Y79333
X343520Y89333
X343520Y99333
X343520Y109333
X343520Y119333
X343520Y129333
X343520Y139333
T04
X408520Y124333
X408520Y114333
X408520Y104333
X408520Y94333
X278520Y209333
X278520Y219333
X263520Y289333
X253520Y289333
X243520Y289333
X148520Y289333
X138520Y289333
X128520Y289333
X55331Y289333
X348520Y299333
X358520Y299333
X368520Y299333
X643520Y299333
X653520Y299333
X663520Y299333
X98520Y124333
X98520Y114333
X98520Y104333
X98520Y94333
T05
X118520Y209333
X118520Y219333
X118520Y229333
X193520Y229333
X193520Y219333
X193520Y209333
T06
X128520Y174333
X88520Y174333
T07
X98620Y24333
X118420Y24333
X138620Y24333
X158420Y24333
X178620Y24333
X198420Y24333
X218620Y24333
X238420Y24333
X273620Y24333
X293420Y24333
X313620Y24333
X333420Y24333
X353620Y24333
X373420Y24333
X393620Y24333
X413420Y24333
X408420Y419333
X388620Y419333
X428620Y419333
X448420Y419333
X468620Y419333
X488420Y419333
X508620Y419333
X528420Y419333
X548620Y419333
X568420Y419333
X588620Y419333
X608420Y419333
X308420Y419333
X288620Y419333
X268420Y419333
X248620Y419333
X228420Y419333
X208620Y419333
X188420Y419333
X168620Y419333
X148420Y419333
X128620Y419333
X108420Y419333
X88620Y419333
T08
X403520Y341833
X433520Y326833
X483520Y341833
X513520Y326833
X563520Y341833
X593520Y326833
X593520Y356833
X513520Y356833
X433520Y356833
X433520Y261833
X403520Y261833
X483520Y261833
X513520Y261833
X563520Y261833
X593520Y261833
X623520Y196833
X593520Y181833
X623520Y166833
X553520Y166833
X523520Y181833
X553520Y196833
X483520Y196833
X453520Y181833
X483520Y166833
X483520Y101833
X453520Y101833
X523520Y101833
X553520Y101833
X593520Y101833
X623520Y101833
T09
X48520Y168333
X28520Y168333
X28520Y230333
X48520Y230333
T10
X40921Y38861
X655094Y38861
X655094Y405003
X40921Y405003
M30
