G75*
%MOIN*%
%OFA0B0*%
%FSLAX25Y25*%
%IPPOS*%
%LPD*%
%AMOC8*
5,1,8,0,0,1.08239X$1,22.5*
%
%ADD10C,0.00000*%
D10*
X0003520Y0009333D02*
X0003520Y0434530D01*
X0692496Y0434530D01*
X0692496Y0009333D01*
X0003520Y0009333D01*
X0035015Y0038861D02*
X0035017Y0039014D01*
X0035023Y0039168D01*
X0035033Y0039321D01*
X0035047Y0039473D01*
X0035065Y0039626D01*
X0035087Y0039777D01*
X0035112Y0039928D01*
X0035142Y0040079D01*
X0035176Y0040229D01*
X0035213Y0040377D01*
X0035254Y0040525D01*
X0035299Y0040671D01*
X0035348Y0040817D01*
X0035401Y0040961D01*
X0035457Y0041103D01*
X0035517Y0041244D01*
X0035581Y0041384D01*
X0035648Y0041522D01*
X0035719Y0041658D01*
X0035794Y0041792D01*
X0035871Y0041924D01*
X0035953Y0042054D01*
X0036037Y0042182D01*
X0036125Y0042308D01*
X0036216Y0042431D01*
X0036310Y0042552D01*
X0036408Y0042670D01*
X0036508Y0042786D01*
X0036612Y0042899D01*
X0036718Y0043010D01*
X0036827Y0043118D01*
X0036939Y0043223D01*
X0037053Y0043324D01*
X0037171Y0043423D01*
X0037290Y0043519D01*
X0037412Y0043612D01*
X0037537Y0043701D01*
X0037664Y0043788D01*
X0037793Y0043870D01*
X0037924Y0043950D01*
X0038057Y0044026D01*
X0038192Y0044099D01*
X0038329Y0044168D01*
X0038468Y0044233D01*
X0038608Y0044295D01*
X0038750Y0044353D01*
X0038893Y0044408D01*
X0039038Y0044459D01*
X0039184Y0044506D01*
X0039331Y0044549D01*
X0039479Y0044588D01*
X0039628Y0044624D01*
X0039778Y0044655D01*
X0039929Y0044683D01*
X0040080Y0044707D01*
X0040233Y0044727D01*
X0040385Y0044743D01*
X0040538Y0044755D01*
X0040691Y0044763D01*
X0040844Y0044767D01*
X0040998Y0044767D01*
X0041151Y0044763D01*
X0041304Y0044755D01*
X0041457Y0044743D01*
X0041609Y0044727D01*
X0041762Y0044707D01*
X0041913Y0044683D01*
X0042064Y0044655D01*
X0042214Y0044624D01*
X0042363Y0044588D01*
X0042511Y0044549D01*
X0042658Y0044506D01*
X0042804Y0044459D01*
X0042949Y0044408D01*
X0043092Y0044353D01*
X0043234Y0044295D01*
X0043374Y0044233D01*
X0043513Y0044168D01*
X0043650Y0044099D01*
X0043785Y0044026D01*
X0043918Y0043950D01*
X0044049Y0043870D01*
X0044178Y0043788D01*
X0044305Y0043701D01*
X0044430Y0043612D01*
X0044552Y0043519D01*
X0044671Y0043423D01*
X0044789Y0043324D01*
X0044903Y0043223D01*
X0045015Y0043118D01*
X0045124Y0043010D01*
X0045230Y0042899D01*
X0045334Y0042786D01*
X0045434Y0042670D01*
X0045532Y0042552D01*
X0045626Y0042431D01*
X0045717Y0042308D01*
X0045805Y0042182D01*
X0045889Y0042054D01*
X0045971Y0041924D01*
X0046048Y0041792D01*
X0046123Y0041658D01*
X0046194Y0041522D01*
X0046261Y0041384D01*
X0046325Y0041244D01*
X0046385Y0041103D01*
X0046441Y0040961D01*
X0046494Y0040817D01*
X0046543Y0040671D01*
X0046588Y0040525D01*
X0046629Y0040377D01*
X0046666Y0040229D01*
X0046700Y0040079D01*
X0046730Y0039928D01*
X0046755Y0039777D01*
X0046777Y0039626D01*
X0046795Y0039473D01*
X0046809Y0039321D01*
X0046819Y0039168D01*
X0046825Y0039014D01*
X0046827Y0038861D01*
X0046825Y0038708D01*
X0046819Y0038554D01*
X0046809Y0038401D01*
X0046795Y0038249D01*
X0046777Y0038096D01*
X0046755Y0037945D01*
X0046730Y0037794D01*
X0046700Y0037643D01*
X0046666Y0037493D01*
X0046629Y0037345D01*
X0046588Y0037197D01*
X0046543Y0037051D01*
X0046494Y0036905D01*
X0046441Y0036761D01*
X0046385Y0036619D01*
X0046325Y0036478D01*
X0046261Y0036338D01*
X0046194Y0036200D01*
X0046123Y0036064D01*
X0046048Y0035930D01*
X0045971Y0035798D01*
X0045889Y0035668D01*
X0045805Y0035540D01*
X0045717Y0035414D01*
X0045626Y0035291D01*
X0045532Y0035170D01*
X0045434Y0035052D01*
X0045334Y0034936D01*
X0045230Y0034823D01*
X0045124Y0034712D01*
X0045015Y0034604D01*
X0044903Y0034499D01*
X0044789Y0034398D01*
X0044671Y0034299D01*
X0044552Y0034203D01*
X0044430Y0034110D01*
X0044305Y0034021D01*
X0044178Y0033934D01*
X0044049Y0033852D01*
X0043918Y0033772D01*
X0043785Y0033696D01*
X0043650Y0033623D01*
X0043513Y0033554D01*
X0043374Y0033489D01*
X0043234Y0033427D01*
X0043092Y0033369D01*
X0042949Y0033314D01*
X0042804Y0033263D01*
X0042658Y0033216D01*
X0042511Y0033173D01*
X0042363Y0033134D01*
X0042214Y0033098D01*
X0042064Y0033067D01*
X0041913Y0033039D01*
X0041762Y0033015D01*
X0041609Y0032995D01*
X0041457Y0032979D01*
X0041304Y0032967D01*
X0041151Y0032959D01*
X0040998Y0032955D01*
X0040844Y0032955D01*
X0040691Y0032959D01*
X0040538Y0032967D01*
X0040385Y0032979D01*
X0040233Y0032995D01*
X0040080Y0033015D01*
X0039929Y0033039D01*
X0039778Y0033067D01*
X0039628Y0033098D01*
X0039479Y0033134D01*
X0039331Y0033173D01*
X0039184Y0033216D01*
X0039038Y0033263D01*
X0038893Y0033314D01*
X0038750Y0033369D01*
X0038608Y0033427D01*
X0038468Y0033489D01*
X0038329Y0033554D01*
X0038192Y0033623D01*
X0038057Y0033696D01*
X0037924Y0033772D01*
X0037793Y0033852D01*
X0037664Y0033934D01*
X0037537Y0034021D01*
X0037412Y0034110D01*
X0037290Y0034203D01*
X0037171Y0034299D01*
X0037053Y0034398D01*
X0036939Y0034499D01*
X0036827Y0034604D01*
X0036718Y0034712D01*
X0036612Y0034823D01*
X0036508Y0034936D01*
X0036408Y0035052D01*
X0036310Y0035170D01*
X0036216Y0035291D01*
X0036125Y0035414D01*
X0036037Y0035540D01*
X0035953Y0035668D01*
X0035871Y0035798D01*
X0035794Y0035930D01*
X0035719Y0036064D01*
X0035648Y0036200D01*
X0035581Y0036338D01*
X0035517Y0036478D01*
X0035457Y0036619D01*
X0035401Y0036761D01*
X0035348Y0036905D01*
X0035299Y0037051D01*
X0035254Y0037197D01*
X0035213Y0037345D01*
X0035176Y0037493D01*
X0035142Y0037643D01*
X0035112Y0037794D01*
X0035087Y0037945D01*
X0035065Y0038096D01*
X0035047Y0038249D01*
X0035033Y0038401D01*
X0035023Y0038554D01*
X0035017Y0038708D01*
X0035015Y0038861D01*
X0037614Y0268861D02*
X0037614Y0272010D01*
X0049425Y0272010D01*
X0049425Y0268861D01*
X0037614Y0268861D01*
X0033283Y0283428D02*
X0030134Y0283428D01*
X0030134Y0295239D01*
X0033283Y0295239D01*
X0033283Y0283428D01*
X0053362Y0282444D02*
X0053362Y0296223D01*
X0057299Y0296223D01*
X0057299Y0282444D01*
X0053362Y0282444D01*
X0035015Y0405003D02*
X0035017Y0405156D01*
X0035023Y0405310D01*
X0035033Y0405463D01*
X0035047Y0405615D01*
X0035065Y0405768D01*
X0035087Y0405919D01*
X0035112Y0406070D01*
X0035142Y0406221D01*
X0035176Y0406371D01*
X0035213Y0406519D01*
X0035254Y0406667D01*
X0035299Y0406813D01*
X0035348Y0406959D01*
X0035401Y0407103D01*
X0035457Y0407245D01*
X0035517Y0407386D01*
X0035581Y0407526D01*
X0035648Y0407664D01*
X0035719Y0407800D01*
X0035794Y0407934D01*
X0035871Y0408066D01*
X0035953Y0408196D01*
X0036037Y0408324D01*
X0036125Y0408450D01*
X0036216Y0408573D01*
X0036310Y0408694D01*
X0036408Y0408812D01*
X0036508Y0408928D01*
X0036612Y0409041D01*
X0036718Y0409152D01*
X0036827Y0409260D01*
X0036939Y0409365D01*
X0037053Y0409466D01*
X0037171Y0409565D01*
X0037290Y0409661D01*
X0037412Y0409754D01*
X0037537Y0409843D01*
X0037664Y0409930D01*
X0037793Y0410012D01*
X0037924Y0410092D01*
X0038057Y0410168D01*
X0038192Y0410241D01*
X0038329Y0410310D01*
X0038468Y0410375D01*
X0038608Y0410437D01*
X0038750Y0410495D01*
X0038893Y0410550D01*
X0039038Y0410601D01*
X0039184Y0410648D01*
X0039331Y0410691D01*
X0039479Y0410730D01*
X0039628Y0410766D01*
X0039778Y0410797D01*
X0039929Y0410825D01*
X0040080Y0410849D01*
X0040233Y0410869D01*
X0040385Y0410885D01*
X0040538Y0410897D01*
X0040691Y0410905D01*
X0040844Y0410909D01*
X0040998Y0410909D01*
X0041151Y0410905D01*
X0041304Y0410897D01*
X0041457Y0410885D01*
X0041609Y0410869D01*
X0041762Y0410849D01*
X0041913Y0410825D01*
X0042064Y0410797D01*
X0042214Y0410766D01*
X0042363Y0410730D01*
X0042511Y0410691D01*
X0042658Y0410648D01*
X0042804Y0410601D01*
X0042949Y0410550D01*
X0043092Y0410495D01*
X0043234Y0410437D01*
X0043374Y0410375D01*
X0043513Y0410310D01*
X0043650Y0410241D01*
X0043785Y0410168D01*
X0043918Y0410092D01*
X0044049Y0410012D01*
X0044178Y0409930D01*
X0044305Y0409843D01*
X0044430Y0409754D01*
X0044552Y0409661D01*
X0044671Y0409565D01*
X0044789Y0409466D01*
X0044903Y0409365D01*
X0045015Y0409260D01*
X0045124Y0409152D01*
X0045230Y0409041D01*
X0045334Y0408928D01*
X0045434Y0408812D01*
X0045532Y0408694D01*
X0045626Y0408573D01*
X0045717Y0408450D01*
X0045805Y0408324D01*
X0045889Y0408196D01*
X0045971Y0408066D01*
X0046048Y0407934D01*
X0046123Y0407800D01*
X0046194Y0407664D01*
X0046261Y0407526D01*
X0046325Y0407386D01*
X0046385Y0407245D01*
X0046441Y0407103D01*
X0046494Y0406959D01*
X0046543Y0406813D01*
X0046588Y0406667D01*
X0046629Y0406519D01*
X0046666Y0406371D01*
X0046700Y0406221D01*
X0046730Y0406070D01*
X0046755Y0405919D01*
X0046777Y0405768D01*
X0046795Y0405615D01*
X0046809Y0405463D01*
X0046819Y0405310D01*
X0046825Y0405156D01*
X0046827Y0405003D01*
X0046825Y0404850D01*
X0046819Y0404696D01*
X0046809Y0404543D01*
X0046795Y0404391D01*
X0046777Y0404238D01*
X0046755Y0404087D01*
X0046730Y0403936D01*
X0046700Y0403785D01*
X0046666Y0403635D01*
X0046629Y0403487D01*
X0046588Y0403339D01*
X0046543Y0403193D01*
X0046494Y0403047D01*
X0046441Y0402903D01*
X0046385Y0402761D01*
X0046325Y0402620D01*
X0046261Y0402480D01*
X0046194Y0402342D01*
X0046123Y0402206D01*
X0046048Y0402072D01*
X0045971Y0401940D01*
X0045889Y0401810D01*
X0045805Y0401682D01*
X0045717Y0401556D01*
X0045626Y0401433D01*
X0045532Y0401312D01*
X0045434Y0401194D01*
X0045334Y0401078D01*
X0045230Y0400965D01*
X0045124Y0400854D01*
X0045015Y0400746D01*
X0044903Y0400641D01*
X0044789Y0400540D01*
X0044671Y0400441D01*
X0044552Y0400345D01*
X0044430Y0400252D01*
X0044305Y0400163D01*
X0044178Y0400076D01*
X0044049Y0399994D01*
X0043918Y0399914D01*
X0043785Y0399838D01*
X0043650Y0399765D01*
X0043513Y0399696D01*
X0043374Y0399631D01*
X0043234Y0399569D01*
X0043092Y0399511D01*
X0042949Y0399456D01*
X0042804Y0399405D01*
X0042658Y0399358D01*
X0042511Y0399315D01*
X0042363Y0399276D01*
X0042214Y0399240D01*
X0042064Y0399209D01*
X0041913Y0399181D01*
X0041762Y0399157D01*
X0041609Y0399137D01*
X0041457Y0399121D01*
X0041304Y0399109D01*
X0041151Y0399101D01*
X0040998Y0399097D01*
X0040844Y0399097D01*
X0040691Y0399101D01*
X0040538Y0399109D01*
X0040385Y0399121D01*
X0040233Y0399137D01*
X0040080Y0399157D01*
X0039929Y0399181D01*
X0039778Y0399209D01*
X0039628Y0399240D01*
X0039479Y0399276D01*
X0039331Y0399315D01*
X0039184Y0399358D01*
X0039038Y0399405D01*
X0038893Y0399456D01*
X0038750Y0399511D01*
X0038608Y0399569D01*
X0038468Y0399631D01*
X0038329Y0399696D01*
X0038192Y0399765D01*
X0038057Y0399838D01*
X0037924Y0399914D01*
X0037793Y0399994D01*
X0037664Y0400076D01*
X0037537Y0400163D01*
X0037412Y0400252D01*
X0037290Y0400345D01*
X0037171Y0400441D01*
X0037053Y0400540D01*
X0036939Y0400641D01*
X0036827Y0400746D01*
X0036718Y0400854D01*
X0036612Y0400965D01*
X0036508Y0401078D01*
X0036408Y0401194D01*
X0036310Y0401312D01*
X0036216Y0401433D01*
X0036125Y0401556D01*
X0036037Y0401682D01*
X0035953Y0401810D01*
X0035871Y0401940D01*
X0035794Y0402072D01*
X0035719Y0402206D01*
X0035648Y0402342D01*
X0035581Y0402480D01*
X0035517Y0402620D01*
X0035457Y0402761D01*
X0035401Y0402903D01*
X0035348Y0403047D01*
X0035299Y0403193D01*
X0035254Y0403339D01*
X0035213Y0403487D01*
X0035176Y0403635D01*
X0035142Y0403785D01*
X0035112Y0403936D01*
X0035087Y0404087D01*
X0035065Y0404238D01*
X0035047Y0404391D01*
X0035033Y0404543D01*
X0035023Y0404696D01*
X0035017Y0404850D01*
X0035015Y0405003D01*
X0649188Y0405003D02*
X0649190Y0405156D01*
X0649196Y0405310D01*
X0649206Y0405463D01*
X0649220Y0405615D01*
X0649238Y0405768D01*
X0649260Y0405919D01*
X0649285Y0406070D01*
X0649315Y0406221D01*
X0649349Y0406371D01*
X0649386Y0406519D01*
X0649427Y0406667D01*
X0649472Y0406813D01*
X0649521Y0406959D01*
X0649574Y0407103D01*
X0649630Y0407245D01*
X0649690Y0407386D01*
X0649754Y0407526D01*
X0649821Y0407664D01*
X0649892Y0407800D01*
X0649967Y0407934D01*
X0650044Y0408066D01*
X0650126Y0408196D01*
X0650210Y0408324D01*
X0650298Y0408450D01*
X0650389Y0408573D01*
X0650483Y0408694D01*
X0650581Y0408812D01*
X0650681Y0408928D01*
X0650785Y0409041D01*
X0650891Y0409152D01*
X0651000Y0409260D01*
X0651112Y0409365D01*
X0651226Y0409466D01*
X0651344Y0409565D01*
X0651463Y0409661D01*
X0651585Y0409754D01*
X0651710Y0409843D01*
X0651837Y0409930D01*
X0651966Y0410012D01*
X0652097Y0410092D01*
X0652230Y0410168D01*
X0652365Y0410241D01*
X0652502Y0410310D01*
X0652641Y0410375D01*
X0652781Y0410437D01*
X0652923Y0410495D01*
X0653066Y0410550D01*
X0653211Y0410601D01*
X0653357Y0410648D01*
X0653504Y0410691D01*
X0653652Y0410730D01*
X0653801Y0410766D01*
X0653951Y0410797D01*
X0654102Y0410825D01*
X0654253Y0410849D01*
X0654406Y0410869D01*
X0654558Y0410885D01*
X0654711Y0410897D01*
X0654864Y0410905D01*
X0655017Y0410909D01*
X0655171Y0410909D01*
X0655324Y0410905D01*
X0655477Y0410897D01*
X0655630Y0410885D01*
X0655782Y0410869D01*
X0655935Y0410849D01*
X0656086Y0410825D01*
X0656237Y0410797D01*
X0656387Y0410766D01*
X0656536Y0410730D01*
X0656684Y0410691D01*
X0656831Y0410648D01*
X0656977Y0410601D01*
X0657122Y0410550D01*
X0657265Y0410495D01*
X0657407Y0410437D01*
X0657547Y0410375D01*
X0657686Y0410310D01*
X0657823Y0410241D01*
X0657958Y0410168D01*
X0658091Y0410092D01*
X0658222Y0410012D01*
X0658351Y0409930D01*
X0658478Y0409843D01*
X0658603Y0409754D01*
X0658725Y0409661D01*
X0658844Y0409565D01*
X0658962Y0409466D01*
X0659076Y0409365D01*
X0659188Y0409260D01*
X0659297Y0409152D01*
X0659403Y0409041D01*
X0659507Y0408928D01*
X0659607Y0408812D01*
X0659705Y0408694D01*
X0659799Y0408573D01*
X0659890Y0408450D01*
X0659978Y0408324D01*
X0660062Y0408196D01*
X0660144Y0408066D01*
X0660221Y0407934D01*
X0660296Y0407800D01*
X0660367Y0407664D01*
X0660434Y0407526D01*
X0660498Y0407386D01*
X0660558Y0407245D01*
X0660614Y0407103D01*
X0660667Y0406959D01*
X0660716Y0406813D01*
X0660761Y0406667D01*
X0660802Y0406519D01*
X0660839Y0406371D01*
X0660873Y0406221D01*
X0660903Y0406070D01*
X0660928Y0405919D01*
X0660950Y0405768D01*
X0660968Y0405615D01*
X0660982Y0405463D01*
X0660992Y0405310D01*
X0660998Y0405156D01*
X0661000Y0405003D01*
X0660998Y0404850D01*
X0660992Y0404696D01*
X0660982Y0404543D01*
X0660968Y0404391D01*
X0660950Y0404238D01*
X0660928Y0404087D01*
X0660903Y0403936D01*
X0660873Y0403785D01*
X0660839Y0403635D01*
X0660802Y0403487D01*
X0660761Y0403339D01*
X0660716Y0403193D01*
X0660667Y0403047D01*
X0660614Y0402903D01*
X0660558Y0402761D01*
X0660498Y0402620D01*
X0660434Y0402480D01*
X0660367Y0402342D01*
X0660296Y0402206D01*
X0660221Y0402072D01*
X0660144Y0401940D01*
X0660062Y0401810D01*
X0659978Y0401682D01*
X0659890Y0401556D01*
X0659799Y0401433D01*
X0659705Y0401312D01*
X0659607Y0401194D01*
X0659507Y0401078D01*
X0659403Y0400965D01*
X0659297Y0400854D01*
X0659188Y0400746D01*
X0659076Y0400641D01*
X0658962Y0400540D01*
X0658844Y0400441D01*
X0658725Y0400345D01*
X0658603Y0400252D01*
X0658478Y0400163D01*
X0658351Y0400076D01*
X0658222Y0399994D01*
X0658091Y0399914D01*
X0657958Y0399838D01*
X0657823Y0399765D01*
X0657686Y0399696D01*
X0657547Y0399631D01*
X0657407Y0399569D01*
X0657265Y0399511D01*
X0657122Y0399456D01*
X0656977Y0399405D01*
X0656831Y0399358D01*
X0656684Y0399315D01*
X0656536Y0399276D01*
X0656387Y0399240D01*
X0656237Y0399209D01*
X0656086Y0399181D01*
X0655935Y0399157D01*
X0655782Y0399137D01*
X0655630Y0399121D01*
X0655477Y0399109D01*
X0655324Y0399101D01*
X0655171Y0399097D01*
X0655017Y0399097D01*
X0654864Y0399101D01*
X0654711Y0399109D01*
X0654558Y0399121D01*
X0654406Y0399137D01*
X0654253Y0399157D01*
X0654102Y0399181D01*
X0653951Y0399209D01*
X0653801Y0399240D01*
X0653652Y0399276D01*
X0653504Y0399315D01*
X0653357Y0399358D01*
X0653211Y0399405D01*
X0653066Y0399456D01*
X0652923Y0399511D01*
X0652781Y0399569D01*
X0652641Y0399631D01*
X0652502Y0399696D01*
X0652365Y0399765D01*
X0652230Y0399838D01*
X0652097Y0399914D01*
X0651966Y0399994D01*
X0651837Y0400076D01*
X0651710Y0400163D01*
X0651585Y0400252D01*
X0651463Y0400345D01*
X0651344Y0400441D01*
X0651226Y0400540D01*
X0651112Y0400641D01*
X0651000Y0400746D01*
X0650891Y0400854D01*
X0650785Y0400965D01*
X0650681Y0401078D01*
X0650581Y0401194D01*
X0650483Y0401312D01*
X0650389Y0401433D01*
X0650298Y0401556D01*
X0650210Y0401682D01*
X0650126Y0401810D01*
X0650044Y0401940D01*
X0649967Y0402072D01*
X0649892Y0402206D01*
X0649821Y0402342D01*
X0649754Y0402480D01*
X0649690Y0402620D01*
X0649630Y0402761D01*
X0649574Y0402903D01*
X0649521Y0403047D01*
X0649472Y0403193D01*
X0649427Y0403339D01*
X0649386Y0403487D01*
X0649349Y0403635D01*
X0649315Y0403785D01*
X0649285Y0403936D01*
X0649260Y0404087D01*
X0649238Y0404238D01*
X0649220Y0404391D01*
X0649206Y0404543D01*
X0649196Y0404696D01*
X0649190Y0404850D01*
X0649188Y0405003D01*
X0649188Y0038861D02*
X0649190Y0039014D01*
X0649196Y0039168D01*
X0649206Y0039321D01*
X0649220Y0039473D01*
X0649238Y0039626D01*
X0649260Y0039777D01*
X0649285Y0039928D01*
X0649315Y0040079D01*
X0649349Y0040229D01*
X0649386Y0040377D01*
X0649427Y0040525D01*
X0649472Y0040671D01*
X0649521Y0040817D01*
X0649574Y0040961D01*
X0649630Y0041103D01*
X0649690Y0041244D01*
X0649754Y0041384D01*
X0649821Y0041522D01*
X0649892Y0041658D01*
X0649967Y0041792D01*
X0650044Y0041924D01*
X0650126Y0042054D01*
X0650210Y0042182D01*
X0650298Y0042308D01*
X0650389Y0042431D01*
X0650483Y0042552D01*
X0650581Y0042670D01*
X0650681Y0042786D01*
X0650785Y0042899D01*
X0650891Y0043010D01*
X0651000Y0043118D01*
X0651112Y0043223D01*
X0651226Y0043324D01*
X0651344Y0043423D01*
X0651463Y0043519D01*
X0651585Y0043612D01*
X0651710Y0043701D01*
X0651837Y0043788D01*
X0651966Y0043870D01*
X0652097Y0043950D01*
X0652230Y0044026D01*
X0652365Y0044099D01*
X0652502Y0044168D01*
X0652641Y0044233D01*
X0652781Y0044295D01*
X0652923Y0044353D01*
X0653066Y0044408D01*
X0653211Y0044459D01*
X0653357Y0044506D01*
X0653504Y0044549D01*
X0653652Y0044588D01*
X0653801Y0044624D01*
X0653951Y0044655D01*
X0654102Y0044683D01*
X0654253Y0044707D01*
X0654406Y0044727D01*
X0654558Y0044743D01*
X0654711Y0044755D01*
X0654864Y0044763D01*
X0655017Y0044767D01*
X0655171Y0044767D01*
X0655324Y0044763D01*
X0655477Y0044755D01*
X0655630Y0044743D01*
X0655782Y0044727D01*
X0655935Y0044707D01*
X0656086Y0044683D01*
X0656237Y0044655D01*
X0656387Y0044624D01*
X0656536Y0044588D01*
X0656684Y0044549D01*
X0656831Y0044506D01*
X0656977Y0044459D01*
X0657122Y0044408D01*
X0657265Y0044353D01*
X0657407Y0044295D01*
X0657547Y0044233D01*
X0657686Y0044168D01*
X0657823Y0044099D01*
X0657958Y0044026D01*
X0658091Y0043950D01*
X0658222Y0043870D01*
X0658351Y0043788D01*
X0658478Y0043701D01*
X0658603Y0043612D01*
X0658725Y0043519D01*
X0658844Y0043423D01*
X0658962Y0043324D01*
X0659076Y0043223D01*
X0659188Y0043118D01*
X0659297Y0043010D01*
X0659403Y0042899D01*
X0659507Y0042786D01*
X0659607Y0042670D01*
X0659705Y0042552D01*
X0659799Y0042431D01*
X0659890Y0042308D01*
X0659978Y0042182D01*
X0660062Y0042054D01*
X0660144Y0041924D01*
X0660221Y0041792D01*
X0660296Y0041658D01*
X0660367Y0041522D01*
X0660434Y0041384D01*
X0660498Y0041244D01*
X0660558Y0041103D01*
X0660614Y0040961D01*
X0660667Y0040817D01*
X0660716Y0040671D01*
X0660761Y0040525D01*
X0660802Y0040377D01*
X0660839Y0040229D01*
X0660873Y0040079D01*
X0660903Y0039928D01*
X0660928Y0039777D01*
X0660950Y0039626D01*
X0660968Y0039473D01*
X0660982Y0039321D01*
X0660992Y0039168D01*
X0660998Y0039014D01*
X0661000Y0038861D01*
X0660998Y0038708D01*
X0660992Y0038554D01*
X0660982Y0038401D01*
X0660968Y0038249D01*
X0660950Y0038096D01*
X0660928Y0037945D01*
X0660903Y0037794D01*
X0660873Y0037643D01*
X0660839Y0037493D01*
X0660802Y0037345D01*
X0660761Y0037197D01*
X0660716Y0037051D01*
X0660667Y0036905D01*
X0660614Y0036761D01*
X0660558Y0036619D01*
X0660498Y0036478D01*
X0660434Y0036338D01*
X0660367Y0036200D01*
X0660296Y0036064D01*
X0660221Y0035930D01*
X0660144Y0035798D01*
X0660062Y0035668D01*
X0659978Y0035540D01*
X0659890Y0035414D01*
X0659799Y0035291D01*
X0659705Y0035170D01*
X0659607Y0035052D01*
X0659507Y0034936D01*
X0659403Y0034823D01*
X0659297Y0034712D01*
X0659188Y0034604D01*
X0659076Y0034499D01*
X0658962Y0034398D01*
X0658844Y0034299D01*
X0658725Y0034203D01*
X0658603Y0034110D01*
X0658478Y0034021D01*
X0658351Y0033934D01*
X0658222Y0033852D01*
X0658091Y0033772D01*
X0657958Y0033696D01*
X0657823Y0033623D01*
X0657686Y0033554D01*
X0657547Y0033489D01*
X0657407Y0033427D01*
X0657265Y0033369D01*
X0657122Y0033314D01*
X0656977Y0033263D01*
X0656831Y0033216D01*
X0656684Y0033173D01*
X0656536Y0033134D01*
X0656387Y0033098D01*
X0656237Y0033067D01*
X0656086Y0033039D01*
X0655935Y0033015D01*
X0655782Y0032995D01*
X0655630Y0032979D01*
X0655477Y0032967D01*
X0655324Y0032959D01*
X0655171Y0032955D01*
X0655017Y0032955D01*
X0654864Y0032959D01*
X0654711Y0032967D01*
X0654558Y0032979D01*
X0654406Y0032995D01*
X0654253Y0033015D01*
X0654102Y0033039D01*
X0653951Y0033067D01*
X0653801Y0033098D01*
X0653652Y0033134D01*
X0653504Y0033173D01*
X0653357Y0033216D01*
X0653211Y0033263D01*
X0653066Y0033314D01*
X0652923Y0033369D01*
X0652781Y0033427D01*
X0652641Y0033489D01*
X0652502Y0033554D01*
X0652365Y0033623D01*
X0652230Y0033696D01*
X0652097Y0033772D01*
X0651966Y0033852D01*
X0651837Y0033934D01*
X0651710Y0034021D01*
X0651585Y0034110D01*
X0651463Y0034203D01*
X0651344Y0034299D01*
X0651226Y0034398D01*
X0651112Y0034499D01*
X0651000Y0034604D01*
X0650891Y0034712D01*
X0650785Y0034823D01*
X0650681Y0034936D01*
X0650581Y0035052D01*
X0650483Y0035170D01*
X0650389Y0035291D01*
X0650298Y0035414D01*
X0650210Y0035540D01*
X0650126Y0035668D01*
X0650044Y0035798D01*
X0649967Y0035930D01*
X0649892Y0036064D01*
X0649821Y0036200D01*
X0649754Y0036338D01*
X0649690Y0036478D01*
X0649630Y0036619D01*
X0649574Y0036761D01*
X0649521Y0036905D01*
X0649472Y0037051D01*
X0649427Y0037197D01*
X0649386Y0037345D01*
X0649349Y0037493D01*
X0649315Y0037643D01*
X0649285Y0037794D01*
X0649260Y0037945D01*
X0649238Y0038096D01*
X0649220Y0038249D01*
X0649206Y0038401D01*
X0649196Y0038554D01*
X0649190Y0038708D01*
X0649188Y0038861D01*
M02*
