G75*
%MOIN*%
%OFA0B0*%
%FSLAX25Y25*%
%IPPOS*%
%LPD*%
%AMOC8*
5,1,8,0,0,1.08239X$1,22.5*
%
%ADD10C,0.01000*%
%ADD11C,0.00500*%
%ADD12R,0.01181X0.08268*%
D10*
X0465370Y0119333D02*
X0469504Y0122089D01*
X0469504Y0116381D01*
X0465370Y0119333D01*
X0535370Y0119333D02*
X0539504Y0122089D01*
X0539504Y0116381D01*
X0535370Y0119333D01*
X0605370Y0119333D02*
X0609504Y0122089D01*
X0609504Y0116381D01*
X0605370Y0119333D01*
X0579504Y0276381D02*
X0579504Y0282089D01*
X0575370Y0279333D01*
X0579504Y0276381D01*
X0499504Y0276381D02*
X0499504Y0282089D01*
X0495370Y0279333D01*
X0499504Y0276381D01*
X0419504Y0276381D02*
X0419504Y0282089D01*
X0415370Y0279333D01*
X0419504Y0276381D01*
D11*
X0459477Y0109520D02*
X0462480Y0109520D01*
X0459477Y0112523D01*
X0459477Y0113274D01*
X0460228Y0114024D01*
X0461729Y0114024D01*
X0462480Y0113274D01*
X0464081Y0113274D02*
X0464832Y0114024D01*
X0467084Y0114024D01*
X0467084Y0109520D01*
X0464832Y0109520D01*
X0464081Y0110271D01*
X0464081Y0113274D01*
X0529477Y0111772D02*
X0532480Y0111772D01*
X0530228Y0114024D01*
X0530228Y0109520D01*
X0534081Y0110271D02*
X0534081Y0113274D01*
X0534832Y0114024D01*
X0537084Y0114024D01*
X0537084Y0109520D01*
X0534832Y0109520D01*
X0534081Y0110271D01*
X0599477Y0110271D02*
X0599477Y0111022D01*
X0600228Y0111772D01*
X0602480Y0111772D01*
X0602480Y0110271D01*
X0601729Y0109520D01*
X0600228Y0109520D01*
X0599477Y0110271D01*
X0600979Y0113274D02*
X0602480Y0111772D01*
X0600979Y0113274D02*
X0599477Y0114024D01*
X0604081Y0113274D02*
X0604081Y0110271D01*
X0604832Y0109520D01*
X0607084Y0109520D01*
X0607084Y0114024D01*
X0604832Y0114024D01*
X0604081Y0113274D01*
X0577084Y0269520D02*
X0574832Y0269520D01*
X0574081Y0270271D01*
X0574081Y0273274D01*
X0574832Y0274024D01*
X0577084Y0274024D01*
X0577084Y0269520D01*
X0572480Y0270271D02*
X0571729Y0269520D01*
X0570228Y0269520D01*
X0569477Y0270271D01*
X0569477Y0271772D01*
X0570228Y0272523D01*
X0570979Y0272523D01*
X0572480Y0271772D01*
X0572480Y0274024D01*
X0569477Y0274024D01*
X0497084Y0274024D02*
X0497084Y0269520D01*
X0494832Y0269520D01*
X0494081Y0270271D01*
X0494081Y0273274D01*
X0494832Y0274024D01*
X0497084Y0274024D01*
X0492480Y0273274D02*
X0491729Y0274024D01*
X0490228Y0274024D01*
X0489477Y0273274D01*
X0489477Y0272523D01*
X0490228Y0271772D01*
X0489477Y0271022D01*
X0489477Y0270271D01*
X0490228Y0269520D01*
X0491729Y0269520D01*
X0492480Y0270271D01*
X0490979Y0271772D02*
X0490228Y0271772D01*
X0417084Y0269520D02*
X0414832Y0269520D01*
X0414081Y0270271D01*
X0414081Y0273274D01*
X0414832Y0274024D01*
X0417084Y0274024D01*
X0417084Y0269520D01*
X0412480Y0269520D02*
X0409477Y0269520D01*
X0410979Y0269520D02*
X0410979Y0274024D01*
X0412480Y0272523D01*
D12*
X0415173Y0279333D03*
X0495173Y0279333D03*
X0575173Y0279333D03*
X0605173Y0119333D03*
X0535173Y0119333D03*
X0465173Y0119333D03*
M02*
